<?xml version="1.0" encoding="UTF-8"?> <svg xmlns="http://www.w3.org/2000/svg" id="a" viewBox="0 0 263 70"><g><path d="M142.5,16.9c-4.99,0-8.9,2.32-11.58,5.43v-4.41h-8.9V52.64h10.06v-20.4c1.91-3.75,6.45-5.82,11.39-5.46,.12-.58,.47-1.68,1.49-3.41h0c1.23-2.04,2.82-3.66,4.6-4.91-1.97-1-4.32-1.56-7.06-1.56Z" style="fill:#fff;"></path><g><path d="M46.55,45.98c.58,0,1.23-.07,1.88-.29v6.59c-1.59,.58-3.62,1.01-5.57,1.01-3.55,0-6.22-1.3-7.67-3.91-3.4,2.68-7.38,4.27-12.52,4.27-6.51,0-12.16-3.76-12.16-10.64,0-8.83,8.32-11.58,15.27-11.58,2.75,0,5.79,.36,8.25,.94v-1.23c0-3.47-2.75-5.86-8.17-5.86-4.78,0-9.04,1.3-12.3,2.6v-8.68c2.82-.94,8.1-2.32,13.46-2.32,10.42,0,17.07,4.27,17.07,15.7v11.07c0,1.81,1.16,2.32,2.46,2.32Zm-25.76-3.76c0,2.6,2.39,4.27,5.43,4.27,2.82,0,5.5-.8,7.81-2.82v-5.43c-1.52-.36-3.83-.8-5.93-.8-3.69,0-7.31,1.23-7.31,4.78Z" style="fill:#fff;"></path><path d="M64.35,16.9c4.92,0,9.26,1.23,12.81,2.97v8.25c-2.97-2.03-8.03-3.55-12.15-3.55-2.24,0-4.85,.65-4.85,2.75,0,5.79,19.61,2.89,19.61,15.63,0,8.18-7.45,10.71-15.77,10.71-5.28,0-10.27-1.16-13.82-3.26v-8.32c3.76,2.46,9.04,3.69,13.24,3.69,3.69,0,6.08-.65,6.08-2.6,0-5.57-19.61-3.11-19.61-15.56,0-8.03,7.16-10.71,14.47-10.71Z" style="fill:#fff;"></path><path d="M162.56,16.9c14.4,0,19.03,11.36,16.71,21.63h-24.46c1.16,5.07,6.51,7.16,12.23,7.16,3.98,0,7.53-.8,10.49-2.1v7.89c-3.25,1.37-7.52,2.17-12.73,2.17-11,0-20.11-6.29-20.11-18.38,0-13.1,10.06-18.38,17.87-18.38Zm.36,7.67c-4.27,0-8.03,2.68-8.17,7.45h15.49c.36-2.39-1.01-7.45-7.31-7.45Z" style="fill:#fff;"></path><path d="M207.65,17.91h10.42l-15.41,38.93c-3.91,9.7-9.33,12.66-14.98,12.66-1.81,0-3.62-.36-5.43-.8v-8.32c1.38,.29,2.75,.51,4.12,.51,3.62,0,6.37-2.46,8.25-7.6l.07-.14-16.42-35.24h10.64l10.13,23.44,8.61-23.44Z" style="fill:#fff;"></path></g><path d="M250.6,45.98c-1.3,0-2.46-.51-2.46-2.32v-11.07c0-11.43-6.66-15.7-17.08-15.7-3.32,0-6.61,.53-9.3,1.15l-3.85,9.73c3.22-1.26,7.36-2.49,11.99-2.49,5.43,0,8.18,2.39,8.18,5.86v1.23c-2.46-.58-5.5-.94-8.25-.94-6.95,0-15.27,2.75-15.27,11.58,0,6.87,5.64,10.64,12.15,10.64,5.14,0,9.12-1.59,12.52-4.27,1.45,2.6,4.13,3.91,7.67,3.91,1.95,0,3.98-.43,5.57-1.01v-6.59c-.65,.22-1.3,.29-1.88,.29Zm-12.52-2.32c-2.32,2.03-4.99,2.82-7.82,2.82-3.04,0-5.43-1.66-5.43-4.27,0-3.54,3.62-4.78,7.31-4.78,2.1,0,4.41,.43,5.93,.8v5.43Z" style="fill:#fff;"></path><path d="M106.91,17.91c-1.83,1.79-4.34,2.9-7.1,2.9s-5.27-1.11-7.1-2.9h-12.57v9.17h14.61v25.56h10.12V27.08h14.61v-9.17h-12.57Z" style="fill:#fff;"></path></g><path d="M108.51,9.21c0,4.8-3.9,8.7-8.71,8.7s-8.7-3.9-8.7-8.7S95,.5,99.8,.5s8.71,3.9,8.71,8.71Zm-8.71-3.22c-1.78,0-3.22,1.44-3.22,3.21s1.44,3.23,3.22,3.23,3.23-1.44,3.23-3.23-1.45-3.21-3.23-3.21Z" style="fill:#ff6000;"></path></svg> 